<svg xmlns="http://www.w3.org/2000/svg" xmlns:xlink="http://www.w3.org/1999/xlink" viewBox="0 0 53 76" fill="#fff" fill-rule="evenodd" stroke="#000" stroke-linecap="round" stroke-linejoin="round"><use xlink:href="#D" x=".5" y=".5"/><defs><linearGradient id="A" x1="8.71%" y1="85.76%" x2="91.42%" y2="28.56%"><stop offset="0%" stop-color="#7bb5d7"/><stop offset="16.5%" stop-color="#76b3d6"/><stop offset="36.4%" stop-color="#65acd4"/><stop offset="58.2%" stop-color="#45a3d0"/><stop offset="81.2%" stop-color="#0197cc"/><stop offset="98.9%" stop-color="#048dc7"/></linearGradient><linearGradient id="B" x1="9.06%" y1="85.97%" x2="91.07%" y2="28.63%"><stop offset="3.4%" stop-color="#acd0e9"/><stop offset="50%" stop-color="#7bb5d7"/><stop offset="61.5%" stop-color="#76b3d6"/><stop offset="75.4%" stop-color="#65acd4"/><stop offset="90.5%" stop-color="#45a3d0"/><stop offset="100%" stop-color="#1f9cce"/></linearGradient><linearGradient id="C" x1="9.05%" y1="85.97%" x2="91.07%" y2="28.63%"><stop offset="3.4%" stop-color="#acd0e9"/><stop offset="60.7%" stop-color="#7bb5d7"/><stop offset="73.3%" stop-color="#76b3d6"/><stop offset="88.7%" stop-color="#65acd4"/><stop offset="100%" stop-color="#52a6d2"/></linearGradient></defs><symbol id="D" overflow="visible"><g stroke="none" fill-rule="nonzero"><path d="M6.84 31.473s10.828-11.821 13.936-18.17C22.639 9.942 26.002 0 26.002 0s2.612 9.212 5.47 13.561c3.98 7.588 12.81 17.162 12.81 17.162l.303.331c4.512 4.657 7.287 11.017 7.287 18.015C51.872 63.387 40.263 75 25.934 75 11.618 75 0 63.387 0 49.068c0-6.736 2.576-12.883 6.801-17.504l.039-.092z" fill="url(#A)"/><path d="M8.858 34.85s9.094-9.806 11.71-15.081c1.552-2.794 4.377-11.056 4.377-11.056s2.2 7.647 4.604 11.253C32.896 26.274 40.3 34.227 40.3 34.227l.251.271c3.799 3.884 6.119 9.153 6.119 14.976 0 11.898-9.747 21.542-21.775 21.542S3.11 61.373 3.11 49.475c0-5.598 2.164-10.708 5.715-14.538l.033-.087z" fill="url(#B)"/><path d="M10.572 43.371s5.572-6.015 7.179-9.247c.959-1.709 2.686-6.786 2.686-6.786s1.347 4.695 2.823 6.91c2.053 3.863 6.597 8.753 6.597 8.753l.155.155c2.32 2.372 3.75 5.609 3.75 9.178 0 7.305-5.977 13.214-13.361 13.214-7.375 0-13.353-5.909-13.353-13.214 0-3.425 1.324-6.554 3.504-8.912l.019-.052z" fill="url(#C)"/><path d="M8.87 37.865h7.096l2.555 13.538 3.739-13.538h7.072l3.746 13.516 2.557-13.516h7.065l-5.332 24.18h-7.327l-4.242-15.224-4.224 15.224H14.25l-5.38-24.18z" fill="#0576bd"/><path d="M37.672 62.42h-7.913l-3.956-14.199-3.939 14.199H13.95L8.403 37.49h7.875l2.313 12.256 3.385-12.256h7.643l3.392 12.239 2.315-12.239h7.843l-5.498 24.93zm-7.344-.75h6.741l5.167-23.43h-6.288l-2.499 13.211-.73.03-3.67-13.242h-6.501l-3.664 13.263-.73-.03-2.498-13.233H9.338l5.213 23.43h6.741L25.8 45.421l4.528 16.249z"/></g></symbol></svg>