<svg xmlns="http://www.w3.org/2000/svg" xmlns:xlink="http://www.w3.org/1999/xlink" viewBox="0 0 76 51" fill="#fff" fill-rule="evenodd" stroke="#000" stroke-linecap="round" stroke-linejoin="round"><style><![CDATA[.B{stroke:#58595b}.C{stroke-linejoin:miter}.D{stroke-width:.023}.E{stroke:none}.F{fill:#231f20}.G{fill-rule:nonzero}.H{fill:url(#E)}.I{stroke-width:.015}.J{stroke-width:.037}]]></style><use xlink:href="#N" x=".5" y=".5"/><defs><linearGradient id="A" y2="69.92%" x2="90.49%" y1="29.13%" x1="13.70%"><stop stop-color="#babbbd" offset=".6%"/><stop stop-color="#a4a5a7" offset="94.9%"/></linearGradient><linearGradient id="B" y2="49.38%" x2="100.69%" y1="50.50%" x1="1.74%"><stop stop-color="#83b8d0" offset="0%"/><stop stop-color="#d6e8f0" offset="67.4%"/><stop stop-color="#cfe3ed" offset="75.8%"/><stop stop-color="#b8c9d3" offset="100%"/></linearGradient><linearGradient id="C" y2="50.00%" x2="99.99%" y1="50.00%" x1="0.01%"><stop stop-color="#83b8d0" offset="0%"/><stop stop-color="#d6e8f0" offset="67.4%"/><stop stop-color="#cfe3ed" offset="75.8%"/><stop stop-color="#b8c9d3" offset="100%"/></linearGradient><linearGradient id="D" y2="50.01%" x2="100.00%" y1="50.01%" x1="0.02%"><stop stop-color="#b8c9d3" offset=".6%"/><stop stop-color="#d6e8f0" offset="22.5%"/><stop stop-color="#cfe3ed" offset="37.1%"/><stop stop-color="#83b8d0" offset="94.9%"/></linearGradient><linearGradient id="E" y2="50.00%" x2="100.00%" y1="50.00%" x1="0.00%"><stop stop-color="#83b8d0" offset="0%"/><stop stop-color="#d6e8f0" offset="67.4%"/><stop stop-color="#cfe3ed" offset="75.8%"/><stop stop-color="#b8c9d3" offset="100%"/></linearGradient><linearGradient id="F" y2="50.00%" x2="100.00%" y1="50.00%" x1="-0.00%"><stop stop-color="#83b8d0" offset="0%"/><stop stop-color="#d6e8f0" offset="67.4%"/><stop stop-color="#cfe3ed" offset="75.8%"/><stop stop-color="#b8c9d3" offset="100%"/></linearGradient><linearGradient id="G" y2="37.61%" x2="44.71%" y1="64.13%" x1="53.21%"><stop stop-color="#cacacb" offset=".6%"/><stop stop-color="#f3f2f2" offset="28.1%"/><stop stop-color="#fff" offset="61.8%"/><stop stop-color="#d1d3d4" offset="94.9%"/></linearGradient><linearGradient id="H" y2="50.00%" x2="99.98%" y1="50.00%" x1="0.02%"><stop stop-color="#58595b" offset=".6%"/><stop stop-color="#919396" offset="94.9%"/></linearGradient><linearGradient id="I" y2="50.00%" x2="100.00%" y1="50.00%" x1="0.02%"><stop stop-color="#58595b" offset=".6%"/><stop stop-color="#919396" offset="94.9%"/></linearGradient><linearGradient id="J" y2="60.86%" x2="86.25%" y1="42.25%" x1="14.89%"><stop stop-color="#b8c9d3" offset=".6%"/><stop stop-color="#d6e8f0" offset="22.5%"/><stop stop-color="#cfe3ed" offset="37.1%"/><stop stop-color="#83b8d0" offset="94.9%"/></linearGradient><linearGradient id="K" y2="57.73%" x2="89.15%" y1="44.15%" x1="20.33%"><stop stop-color="#b8c9d3" offset=".6%"/><stop stop-color="#d6e8f0" offset="22.5%"/><stop stop-color="#cfe3ed" offset="37.1%"/><stop stop-color="#83b8d0" offset="94.9%"/></linearGradient><linearGradient id="L" y2="49.99%" x2="100.00%" y1="49.99%" x1="0.00%"><stop stop-color="#b8c9d3" offset=".6%"/><stop stop-color="#d6e8f0" offset="22.5%"/><stop stop-color="#cfe3ed" offset="37.1%"/><stop stop-color="#83b8d0" offset="94.9%"/></linearGradient><linearGradient id="M" y2="50.00%" x2="99.97%" y1="50.00%" x1="-0.00%"><stop stop-color="#83b8d0" offset="0%"/><stop stop-color="#d6e8f0" offset="67.4%"/><stop stop-color="#cfe3ed" offset="75.8%"/><stop stop-color="#b8c9d3" offset="100%"/></linearGradient></defs><symbol id="N" overflow="visible"><g class="G"><path d="M37.042 18.831c-.375.535-2.252 5.155-2.493 6.017l-.689 3.008c.005.532.021 1.161.344 1.548s2.398 1.552 3.525 1.719 2.749-.042 4.125-.513 12.639-6.192 12.639-6.192l18.753-10.306c.609-.414 1.145-1.166 1.365-1.46s.314-3.221.171-4.568-.415-4.528-1.279-4.987-36.088 15.199-36.463 15.735z" fill="url(#A)" class="B C D"/><path d="M45.221 19.838l2.702-1.415.556 5.026c.026 1.273-.162 3.705-.162 3.705l-2.778 1.352s.277-2.749.201-4.219-.52-4.449-.52-4.449z" class="E F"/><path d="M45.585 21.006l2.305-1.151.383 3.263c.062 1.281-.129 3.904-.129 3.904l-2.367 1.151.141-3.967c-.064-1.475-.332-3.201-.332-3.201z" fill="url(#B)" class="B C D"/><path d="M48.803 17.885l8.037-4.434.378 4.622c.087 1.061 0 2.389 0 2.389l-7.974 4.24v-3.005l-.442-3.81z" class="E F"/><path d="M49.19 19.241l7.511-4.185.306 3.077c.082.998 0 2.245 0 2.245l-7.565 3.991v-2.828l-.253-2.299z" fill="url(#C)" class="B C D"/><path d="M53.209 22.4c.251-1.742-.417-5.314-.417-5.314l.221-.116s.666 3.574.417 5.315l-.221.115zm4.969-9.646l4.694-2.5.359 5.12.039 3.577-4.733 2.528.026-3.925-.385-4.799z" class="E F"/><g class="B C D"><path d="M58.502 13.978l4.324-2.413.249 3.909v3.325l-4.324 2.327v-3.656l-.25-3.491z" fill="url(#D)"/><path d="M72.295 5.236l-4.323 2.409s-.166-1.108-.443-1.247 3.63-2.16 4.075-2.16.692.998.692.998z" fill="#3d2627"/></g><path d="M68.293 7.101l4.694-2.502.359 5.121.039 3.579-4.733 2.526.028-3.923-.386-4.801z" class="E F"/><path d="M68.645 8.321l4.326-2.409.249 3.907v3.326l-4.324 2.329v-3.66l-.25-3.492z" class="B C D H"/><path d="M71.126 14.279l-.178.137c.249-2.424-.238-7.29-.238-7.29l.199-.108s.487 4.868.236 7.29m-7.654-4.434l4.489-2.409.241 3.616.092 3.087-4.462 2.499-.126-3.37-.235-3.422z" class="E F"/><g class="B C D"><path d="M63.794 11.009l4.104-2.353.165 2.466.084 2.938-4.159 2.243-.055-3.074-.139-2.221z" fill="url(#F)"/><path d="M37.218 18.216c.333-.831.333-.998 1.164-1.662s7.565-4.075 8.564-4.74 9.143-5.07 11.058-6.069 8.148-4.489 8.148-4.489S68.148.093 68.728.009s1.994.498 2.495.831 1.996 1.247 2.243 1.747.666 1.578.666 1.578L42.871 21.293c-.581.331-1.247.247-1.829.331s-4.322-2.009-4.322-2.009.168-.567.498-1.4z" fill="url(#G)"/></g></g><path d="M44.118 20.545s.084-.915-.331-1.497c-.446-.624-2.744-2.66-3.409-2.744l-1.333-.165m9.065 2.245s.083-.914-.335-1.497c-.445-.623-2.742-2.658-3.407-2.742l-1.329-.165m9.701 1.875s.084-.915-.33-1.497c-.446-.626-2.746-2.66-3.411-2.744l-1.331-.167m9.811 1.831s.084-.915-.331-1.499c-.446-.623-2.744-2.66-3.409-2.741l-1.329-.167m10.796 1.2s.082-.915-.332-1.497c-.448-.624-2.746-2.66-3.41-2.743l-1.331-.168m9.823 1.878s.084-.914-.332-1.496c-.445-.624-2.744-2.66-3.409-2.744l-1.331-.165" fill="none" class="B J"/><g class="G"><path d="M61.009 19.934l-.178.136c.249-2.426-.238-7.291-.238-7.291l.2-.107s.485 4.868.236 7.288" class="E F"/><g class="B C"><g fill="url(#H)" class="I"><path d="M35.117 18.474s.729-.864 1.666-.97 1.561.323 2.29.649 1.785 1.14 2.254 1.68.556.695.763 1.559.574 3.291.624 4.693.105 2.594-.102 3.349-.626 1.347-1.041 1.615-1.874.865-1.874.865l-4.581-13.439z"/><path d="M34.674 18.699s.729-.865 1.666-.972 1.562.324 2.29.647 1.785 1.25 2.254 1.792.556.582.763 1.446.571 3.294.626 4.698.104 2.589-.107 3.344-.623 1.35-1.038 1.619-1.874.865-1.874.865l-4.581-13.439z"/></g><g fill="url(#I)"><path d="M34.231 18.919s.729-.864 1.666-.972 1.562.325 2.288.65 1.732 1.138 2.201 1.677.61.695.818 1.559.572 3.292.626 4.696.103 2.592-.105 3.347-.624 1.351-1.041 1.617-1.873.866-1.873.866L34.23 18.921z" class="I"/><path d="M33.842 19.196s.729-.864 1.666-.97 1.562.323 2.29.647 1.619 1.085 2.086 1.625.723.75.932 1.614.572 3.292.624 4.694.103 2.592-.104 3.348-.626 1.349-1.041 1.62-1.873.861-1.873.861l-4.579-13.439z" class="I"/></g><path d="M3.181 37.076c-.373.532-2.252 5.155-2.493 6.016L0 46.1c.004.535.02 1.163.344 1.549s2.398 1.552 3.525 1.719 2.749-.042 4.127-.517c1.377-.469 12.639-6.189 12.639-6.189l18.752-10.304c.611-.415 1.147-1.165 1.365-1.461s.317-3.221.172-4.567-.414-4.531-1.278-4.987S3.553 36.54 3.179 37.078z" fill="url(#A)" class="D"/></g><g class="E F"><path d="M6.484 39.784l-.437 1.072-3.779-1.837.544-1.19z"/><path d="M4.014 47.174c1.051-1.662 2.642-7.638 2.642-7.638s-3.322.396-4.223-.582L.649 43.372.05 45.642c1.196.832 3.121 2.078 3.964 1.532z"/></g><path d="M3.96 46.894c1.025-1.661 2.127-6.126 2.127-6.126S3.3 39.657 2.424 38.679L.688 43.092.104 45.366c1.164.831 3.037 2.078 3.856 1.528z" fill="url(#J)" class="B C D"/><path d="M6.875 39.712l-2.255 7.41s1.281-.128 2.049-.322 1.281-.322 1.728-.766.692-1.599.884-2.049.593-5.014.593-5.014-1.06.606-1.572.668-1.426.075-1.426.075z" class="E F"/><path d="M6.686 41.023l-1.813 5.889s1.153-.113 1.866-.291 1.108-.262 1.525-.676.641-1.485.819-1.898c.178-.419.464-3.485.464-3.485s-.939.351-1.415.408c-.476.063-1.447.054-1.447.054z" fill="url(#K)" class="B C D"/><path d="M11.361 38.083l2.702-1.412.556 5.026c.025 1.271-.162 3.703-.162 3.703l-2.778 1.352s.276-2.749.2-4.221-.519-4.449-.519-4.449z" class="E F"/><path d="M11.723 39.248l2.304-1.151.384 3.265c.064 1.277-.128 3.902-.128 3.902l-2.368 1.151.141-3.967c-.064-1.47-.333-3.201-.333-3.201z" fill="url(#B)" class="B C D"/><path d="M14.944 36.127l8.036-4.433.378 4.623c.087 1.059 0 2.385 0 2.385l-7.974 4.243v-3.006l-.44-3.813z" class="E F"/><path d="M15.332 37.488l7.511-4.185.304 3.076c.084.998 0 2.245 0 2.245l-7.566 3.989v-2.827l-.248-2.298z" class="B C D H"/><path d="M19.351 40.647c.248-1.745-.417-5.317-.417-5.317l.223-.113s.665 3.571.414 5.314l-.218.117zM24.317 31l4.694-2.5.361 5.119.039 3.579-4.735 2.526.027-3.923-.386-4.798z" class="E F"/><g class="B C D"><path d="M24.642 32.222l4.324-2.412.249 3.911v3.322l-4.323 2.329v-3.656l-.248-3.494z" fill="url(#L)"/><path d="M39.098 24.145l-4.322 2.413s-.167-1.109-.443-1.248 3.63-2.162 4.073-2.162.692.997.692.997z" fill="#3d2627"/></g><path d="M34.432 25.344l4.696-2.5.359 5.12.039 3.579-4.733 2.527.026-3.922-.386-4.804z" class="E F"/><path d="M34.787 26.567l4.323-2.411.249 3.907v3.328l-4.324 2.329v-3.66l-.247-3.492z" class="B C D H"/><path d="M37.266 32.525l-.181.136c.251-2.423-.236-7.291-.236-7.291l.199-.108s.487 4.868.238 7.292M29.63 28.12l4.491-2.411.239 3.617.092 3.088-4.462 2.494-.125-3.368-.238-3.419z" class="E F"/><g class="B C D"><path d="M29.936 29.254l4.101-2.356.168 2.469.081 2.934-4.154 2.246-.057-3.075-.138-2.217z" fill="url(#M)"/><path d="M3.359 36.46c.333-.828.333-.995 1.164-1.661s7.566-4.076 8.563-4.739 9.147-5.073 11.058-6.069 8.148-4.492 8.148-4.492 1.994-1.163 2.576-1.245 1.997.498 2.495.831 1.995 1.247 2.246 1.745.665 1.581.665 1.581L9.011 39.538c-.582.335-1.247.251-1.829.335s-4.324-2.009-4.324-2.009.167-.57.499-1.403z" fill="url(#G)"/></g></g><path d="M10.26 38.789s.082-.914-.333-1.496c-.445-.623-2.743-2.662-3.41-2.744l-1.329-.165m9.062 2.243s.083-.914-.332-1.496c-.445-.624-2.744-2.662-3.409-2.746l-1.33-.165m9.704 1.877s.083-.915-.332-1.496c-.445-.625-2.743-2.662-3.41-2.743l-1.328-.166m9.809 1.826s.083-.912-.332-1.496c-.445-.623-2.744-2.66-3.409-2.743l-1.33-.167m10.796 1.2s.084-.914-.332-1.498c-.445-.624-2.744-2.66-3.409-2.743l-1.331-.167m9.823 1.878s.084-.915-.333-1.496c-.445-.624-2.743-2.662-3.407-2.744l-1.331-.167" fill="none" class="B J"/><g class="G"><path d="M3.24 36.804l1.531.737c.417.249.583.419 1.33.833s.445 1.468.445 1.468L2.811 37.83l.429-1.026z" fill="#ae393e" class="B C D"/><path d="M27.151 38.18l-.18.133c.249-2.423-.236-7.289-.236-7.289l.199-.107s.487 4.865.238 7.287" class="E F"/></g></symbol></svg>