<svg xmlns="http://www.w3.org/2000/svg" xmlns:xlink="http://www.w3.org/1999/xlink" viewBox="0 0 69 69" fill="#fff" fill-rule="evenodd" stroke="#000" stroke-linecap="round" stroke-linejoin="round"><style><![CDATA[.B{fill:#000}.C{stroke-linejoin:miter}.D{stroke-width:.787}.E{stroke:#fff}.F{stroke:none}.G{fill:none}.H{stroke-linecap:square}]]></style><use xlink:href="#A" x=".5" y=".5"/><symbol id="A" overflow="visible"><g class="B"><path d="M59.438 59.831v-9.053H9.841v9.053h49.597z" class="C D E"/><path d="M44.48 55.895h12.202z" class="F"/></g><path d="M44.48 55.895h12.202" class="C D E G H"/><path d="M44.48 55.501h12.202z" class="B F"/><g class="C D E"><path d="M44.48 55.501h12.202" class="G H"/><path d="M67.703 51.171v-8.266l-8.266 7.873v9.053l8.266-8.66z" class="B"/></g><path d="M61.405 55.107z" class="B F"/><g class="D E"><path d="M50.778 67.704v-2.362l4.33-6.298v3.936l-4.33 4.724z" class="B"/><path d="M50.778 65.342v2.362H11.022v-2.362h39.756z" class="B C"/><path d="M50.778 65.342H11.022l4.724-6.298h39.362l-4.33 6.298z" class="B"/><g class="C"><path d="M67.704 42.905H18.107l-8.266 7.873h49.597l8.266-7.873z" class="B"/><path d="M53.139 46.054V20.862H18.894v25.192h34.245z" class="B"/></g></g><use xlink:href="#C" class="B F"/><g class="E"><g class="C D"><use xlink:href="#C" class="G"/><path d="M58.65 15.745H24.405l-5.511 5.117h34.245l5.511-5.117z" class="B"/></g><path d="M58.65 40.543V15.745l-5.511 5.117v25.192l5.511-5.511z" class="B D"/></g><g class="F"><path d="M58.65 33.458zM31.49 0l-.787.787H0L.787 0H31.49z" class="B"/><path d="M31.49 30.703V0l-.787.787v30.309l.787-.394z" class="B"/></g><g class="C D E"><path d="M1.181 31.096h29.522V.787H0v29.128l1.181 1.181z" class="B"/><g class="G"><path d="M28.336.794v17.713c0 1.181-1.181.787-1.181.787H3.144s-.787.394-.787-.787V.794" class="H"/><path d="M1.969 3.937V2.362H.394v1.575h1.575zm28.341 0V2.362h-1.575v1.575h1.575z"/></g></g><use xlink:href="#D" class="F"/><g class="C D G"><use xlink:href="#D"/><path d="M28.337 31.103v-8.66s0-1.181-1.181-1.181H6.294s-1.181 0-1.181.787v8.66" class="E H"/></g><path d="M12.203 30.309v-8.266H8.66v8.266h3.543z" class="B F"/><path d="M30.703.787L31.49 0" class="C D E G H"/></symbol><defs ><path id="C" d="M21.645 26.379c0-2.362 2.755-2.755 2.755-2.755h22.436c3.149 0 3.149 2.755 3.149 2.755v14.17c0 1.968-2.362 2.755-2.362 2.755h-22.83c-2.362 0-3.149-2.362-3.149-2.362z"/><path id="D" d="M23.22 22.443v8.66H5.113v-9.053c0-.787 1.181-.787 1.181-.787h16.138c1.181 0 .787 1.181.787 1.181z"/></defs></svg>