<?xml version="1.0" standalone="no"?>
<!DOCTYPE svg PUBLIC "-//W3C//DTD SVG 20010904//EN"
 "http://www.w3.org/TR/2001/REC-SVG-20010904/DTD/svg10.dtd">
<svg version="1.0" xmlns="http://www.w3.org/2000/svg"
 width="512.000000pt" height="512.000000pt" viewBox="0 0 512.000000 512.000000"
 preserveAspectRatio="xMidYMid meet">

<g transform="translate(0.000000,512.000000) scale(0.100000,-0.100000)"
fill="#000000" stroke="none">
<path d="M2325 5109 c-495 -46 -985 -245 -1370 -556 -122 -99 -300 -277 -397
-398 -217 -271 -393 -627 -478 -965 -152 -603 -86 -1214 191 -1769 130 -262
265 -451 472 -660 430 -435 983 -695 1597 -750 647 -59 1317 145 1825 556 122
99 300 277 397 398 217 271 393 627 478 965 152 603 86 1214 -191 1769 -130
262 -265 451 -472 660 -209 211 -411 357 -678 490 -430 214 -903 304 -1374
260z m-160 -1518 c846 -483 1526 -878 1549 -899 57 -53 71 -133 37 -207 -10
-22 -27 -47 -37 -56 -10 -9 -158 -96 -329 -194 -170 -98 -539 -311 -820 -474
l-510 -296 -66 0 c-57 0 -71 4 -103 29 -21 16 -47 47 -57 70 -18 39 -19 85
-19 1001 0 915 1 962 19 1001 19 43 62 80 109 95 52 16 104 0 227 -70z"/>
</g>
</svg>
